<mxfile host="drawio-plugin" modified="2024-06-09T21:40:37.992Z" agent="Mozilla/5.0 (Windows NT 10.0; Win64; x64) AppleWebKit/537.36 (KHTML, like Gecko) Chrome/111.0.0.0 Safari/537.36" etag="hjZgpKpBEn1ZGy4WCvln" version="22.1.22" type="embed">
  <diagram id="C5RBs43oDa-KdzZeNtuy" name="Page-1">
    <mxGraphModel dx="652" dy="536" grid="1" gridSize="10" guides="1" tooltips="1" connect="1" arrows="1" fold="1" page="1" pageScale="1" pageWidth="827" pageHeight="1169" math="0" shadow="0">
      <root>
        <mxCell id="WIyWlLk6GJQsqaUBKTNV-0" />
        <mxCell id="WIyWlLk6GJQsqaUBKTNV-1" parent="WIyWlLk6GJQsqaUBKTNV-0" />
        <mxCell id="tpA9KlKDDthIMWe6Qa9L-3" value="" style="ellipse;whiteSpace=wrap;html=1;" parent="WIyWlLk6GJQsqaUBKTNV-1" vertex="1">
          <mxGeometry x="270" y="120" width="150" height="80" as="geometry" />
        </mxCell>
        <mxCell id="tpA9KlKDDthIMWe6Qa9L-2" value="&lt;font style=&quot;font-size: 22px;&quot;&gt;Adicionar Item&lt;/font&gt;" style="text;html=1;align=center;verticalAlign=middle;whiteSpace=wrap;rounded=0;arcSize=12;imageHeight=24;" parent="WIyWlLk6GJQsqaUBKTNV-1" vertex="1">
          <mxGeometry x="307.5" y="147.5" width="75" height="25" as="geometry" />
        </mxCell>
        <mxCell id="tpA9KlKDDthIMWe6Qa9L-5" value="" style="endArrow=none;html=1;rounded=0;exitX=0.763;exitY=0.097;exitDx=0;exitDy=0;exitPerimeter=0;" parent="WIyWlLk6GJQsqaUBKTNV-1" target="tpA9KlKDDthIMWe6Qa9L-3" edge="1">
          <mxGeometry width="50" height="50" relative="1" as="geometry">
            <mxPoint x="144.45000000000005" y="317.76" as="sourcePoint" />
            <mxPoint x="200" y="260" as="targetPoint" />
          </mxGeometry>
        </mxCell>
        <mxCell id="tpA9KlKDDthIMWe6Qa9L-6" value="" style="ellipse;whiteSpace=wrap;html=1;" parent="WIyWlLk6GJQsqaUBKTNV-1" vertex="1">
          <mxGeometry x="402" y="270" width="150" height="80" as="geometry" />
        </mxCell>
        <mxCell id="tpA9KlKDDthIMWe6Qa9L-7" value="&lt;font style=&quot;font-size: 22px;&quot;&gt;Listar Itens&lt;/font&gt;" style="text;html=1;align=center;verticalAlign=middle;whiteSpace=wrap;rounded=0;arcSize=12;imageHeight=24;" parent="WIyWlLk6GJQsqaUBKTNV-1" vertex="1">
          <mxGeometry x="439.5" y="297.5" width="75" height="25" as="geometry" />
        </mxCell>
        <mxCell id="tpA9KlKDDthIMWe6Qa9L-8" value="" style="endArrow=none;html=1;rounded=0;exitX=1;exitY=0.5;exitDx=0;exitDy=0;" parent="WIyWlLk6GJQsqaUBKTNV-1" target="tpA9KlKDDthIMWe6Qa9L-6" edge="1">
          <mxGeometry width="50" height="50" relative="1" as="geometry">
            <mxPoint x="180" y="350" as="sourcePoint" />
            <mxPoint x="332" y="410" as="targetPoint" />
          </mxGeometry>
        </mxCell>
        <mxCell id="tpA9KlKDDthIMWe6Qa9L-9" value="" style="ellipse;whiteSpace=wrap;html=1;" parent="WIyWlLk6GJQsqaUBKTNV-1" vertex="1">
          <mxGeometry x="336" y="387" width="150" height="80" as="geometry" />
        </mxCell>
        <mxCell id="tpA9KlKDDthIMWe6Qa9L-10" value="&lt;font style=&quot;font-size: 22px;&quot;&gt;Remover Item&lt;/font&gt;" style="text;html=1;align=center;verticalAlign=middle;whiteSpace=wrap;rounded=0;arcSize=12;imageHeight=24;" parent="WIyWlLk6GJQsqaUBKTNV-1" vertex="1">
          <mxGeometry x="373.5" y="414.5" width="75" height="25" as="geometry" />
        </mxCell>
        <mxCell id="tpA9KlKDDthIMWe6Qa9L-11" value="" style="endArrow=none;html=1;rounded=0;exitX=1;exitY=1;exitDx=0;exitDy=0;" parent="WIyWlLk6GJQsqaUBKTNV-1" target="tpA9KlKDDthIMWe6Qa9L-9" edge="1">
          <mxGeometry width="50" height="50" relative="1" as="geometry">
            <mxPoint x="158.03300858899104" y="378.2842712474619" as="sourcePoint" />
            <mxPoint x="266" y="527" as="targetPoint" />
          </mxGeometry>
        </mxCell>
        <mxCell id="tpA9KlKDDthIMWe6Qa9L-17" value="" style="ellipse;whiteSpace=wrap;html=1;" parent="WIyWlLk6GJQsqaUBKTNV-1" vertex="1">
          <mxGeometry x="339" y="722.5" width="150" height="80" as="geometry" />
        </mxCell>
        <mxCell id="tpA9KlKDDthIMWe6Qa9L-19" value="" style="endArrow=none;html=1;rounded=0;exitX=1;exitY=0.5;exitDx=0;exitDy=0;" parent="WIyWlLk6GJQsqaUBKTNV-1" target="tpA9KlKDDthIMWe6Qa9L-17" edge="1">
          <mxGeometry width="50" height="50" relative="1" as="geometry">
            <mxPoint x="180" y="790" as="sourcePoint" />
            <mxPoint x="332" y="850" as="targetPoint" />
          </mxGeometry>
        </mxCell>
        <mxCell id="tpA9KlKDDthIMWe6Qa9L-23" value="&lt;span style=&quot;font-size: 22px;&quot;&gt;EscolhaPlano&lt;/span&gt;" style="text;html=1;align=center;verticalAlign=middle;whiteSpace=wrap;rounded=0;arcSize=12;imageHeight=24;" parent="WIyWlLk6GJQsqaUBKTNV-1" vertex="1">
          <mxGeometry x="376.5" y="750" width="75" height="25" as="geometry" />
        </mxCell>
        <mxCell id="tpA9KlKDDthIMWe6Qa9L-24" value="" style="endArrow=none;html=1;rounded=0;exitX=1;exitY=0;exitDx=0;exitDy=0;entryX=-0.003;entryY=0.603;entryDx=0;entryDy=0;entryPerimeter=0;" parent="WIyWlLk6GJQsqaUBKTNV-1" source="tpA9KlKDDthIMWe6Qa9L-17" target="tpA9KlKDDthIMWe6Qa9L-25" edge="1">
          <mxGeometry width="50" height="50" relative="1" as="geometry">
            <mxPoint x="470" y="722.5" as="sourcePoint" />
            <mxPoint x="540" y="680" as="targetPoint" />
          </mxGeometry>
        </mxCell>
        <mxCell id="tpA9KlKDDthIMWe6Qa9L-25" value="" style="ellipse;whiteSpace=wrap;html=1;" parent="WIyWlLk6GJQsqaUBKTNV-1" vertex="1">
          <mxGeometry x="540" y="620" width="150" height="80" as="geometry" />
        </mxCell>
        <mxCell id="tpA9KlKDDthIMWe6Qa9L-26" value="&lt;span style=&quot;font-size: 22px;&quot;&gt;Convencional&lt;/span&gt;" style="text;html=1;align=center;verticalAlign=middle;whiteSpace=wrap;rounded=0;arcSize=12;imageHeight=24;" parent="WIyWlLk6GJQsqaUBKTNV-1" vertex="1">
          <mxGeometry x="577.5" y="647.5" width="75" height="25" as="geometry" />
        </mxCell>
        <mxCell id="tpA9KlKDDthIMWe6Qa9L-27" value="" style="ellipse;whiteSpace=wrap;html=1;" parent="WIyWlLk6GJQsqaUBKTNV-1" vertex="1">
          <mxGeometry x="552" y="782.5" width="150" height="80" as="geometry" />
        </mxCell>
        <mxCell id="tpA9KlKDDthIMWe6Qa9L-28" value="&lt;span style=&quot;font-size: 22px;&quot;&gt;Premium&lt;/span&gt;" style="text;html=1;align=center;verticalAlign=middle;whiteSpace=wrap;rounded=0;arcSize=12;imageHeight=24;" parent="WIyWlLk6GJQsqaUBKTNV-1" vertex="1">
          <mxGeometry x="589.5" y="810" width="75" height="25" as="geometry" />
        </mxCell>
        <mxCell id="tpA9KlKDDthIMWe6Qa9L-29" value="" style="endArrow=none;html=1;rounded=0;exitX=0.916;exitY=0.811;exitDx=0;exitDy=0;entryX=0;entryY=0.5;entryDx=0;entryDy=0;entryPerimeter=0;exitPerimeter=0;" parent="WIyWlLk6GJQsqaUBKTNV-1" source="tpA9KlKDDthIMWe6Qa9L-17" target="tpA9KlKDDthIMWe6Qa9L-27" edge="1">
          <mxGeometry width="50" height="50" relative="1" as="geometry">
            <mxPoint x="460" y="841" as="sourcePoint" />
            <mxPoint x="533" y="775" as="targetPoint" />
          </mxGeometry>
        </mxCell>
        <mxCell id="tpA9KlKDDthIMWe6Qa9L-31" value="" style="endArrow=none;html=1;rounded=0;exitX=1;exitY=0;exitDx=0;exitDy=0;entryX=-0.011;entryY=0.595;entryDx=0;entryDy=0;entryPerimeter=0;" parent="WIyWlLk6GJQsqaUBKTNV-1" source="tpA9KlKDDthIMWe6Qa9L-27" target="tpA9KlKDDthIMWe6Qa9L-33" edge="1">
          <mxGeometry width="50" height="50" relative="1" as="geometry">
            <mxPoint x="702" y="802.5" as="sourcePoint" />
            <mxPoint x="752" y="752.5" as="targetPoint" />
          </mxGeometry>
        </mxCell>
        <mxCell id="tpA9KlKDDthIMWe6Qa9L-33" value="" style="ellipse;whiteSpace=wrap;html=1;" parent="WIyWlLk6GJQsqaUBKTNV-1" vertex="1">
          <mxGeometry x="770" y="695" width="150" height="80" as="geometry" />
        </mxCell>
        <mxCell id="tpA9KlKDDthIMWe6Qa9L-34" value="&lt;span style=&quot;font-size: 22px;&quot;&gt;Obter agenda&lt;/span&gt;" style="text;html=1;align=center;verticalAlign=middle;whiteSpace=wrap;rounded=0;arcSize=12;imageHeight=24;" parent="WIyWlLk6GJQsqaUBKTNV-1" vertex="1">
          <mxGeometry x="807.5" y="722.5" width="75" height="25" as="geometry" />
        </mxCell>
        <mxCell id="tpA9KlKDDthIMWe6Qa9L-36" value="" style="ellipse;whiteSpace=wrap;html=1;" parent="WIyWlLk6GJQsqaUBKTNV-1" vertex="1">
          <mxGeometry x="770" y="830" width="150" height="80" as="geometry" />
        </mxCell>
        <mxCell id="tpA9KlKDDthIMWe6Qa9L-37" value="&lt;span style=&quot;font-size: 22px;&quot;&gt;Obter max de espaÃ§os&lt;/span&gt;" style="text;html=1;align=center;verticalAlign=middle;whiteSpace=wrap;rounded=0;arcSize=12;imageHeight=24;" parent="WIyWlLk6GJQsqaUBKTNV-1" vertex="1">
          <mxGeometry x="807.5" y="857.5" width="75" height="25" as="geometry" />
        </mxCell>
        <mxCell id="tpA9KlKDDthIMWe6Qa9L-38" value="" style="endArrow=none;html=1;rounded=0;entryX=0;entryY=0.5;entryDx=0;entryDy=0;exitX=1;exitY=1;exitDx=0;exitDy=0;" parent="WIyWlLk6GJQsqaUBKTNV-1" source="tpA9KlKDDthIMWe6Qa9L-27" target="tpA9KlKDDthIMWe6Qa9L-36" edge="1">
          <mxGeometry width="50" height="50" relative="1" as="geometry">
            <mxPoint x="680" y="840" as="sourcePoint" />
            <mxPoint x="752.5" y="882.5" as="targetPoint" />
          </mxGeometry>
        </mxCell>
        <mxCell id="tpA9KlKDDthIMWe6Qa9L-44" value="" style="ellipse;whiteSpace=wrap;html=1;" parent="WIyWlLk6GJQsqaUBKTNV-1" vertex="1">
          <mxGeometry x="307.5" y="930" width="150" height="80" as="geometry" />
        </mxCell>
        <mxCell id="tpA9KlKDDthIMWe6Qa9L-47" value="&lt;font style=&quot;font-size: 22px;&quot;&gt;Adicionar Lembrete&lt;/font&gt;" style="text;html=1;align=center;verticalAlign=middle;whiteSpace=wrap;rounded=0;arcSize=12;imageHeight=24;" parent="WIyWlLk6GJQsqaUBKTNV-1" vertex="1">
          <mxGeometry x="345" y="957.5" width="75" height="25" as="geometry" />
        </mxCell>
        <mxCell id="tpA9KlKDDthIMWe6Qa9L-48" value="" style="endArrow=none;html=1;rounded=0;" parent="WIyWlLk6GJQsqaUBKTNV-1" target="tpA9KlKDDthIMWe6Qa9L-44" edge="1">
          <mxGeometry width="50" height="50" relative="1" as="geometry">
            <mxPoint x="150" y="1110" as="sourcePoint" />
            <mxPoint x="237.5" y="1070" as="targetPoint" />
          </mxGeometry>
        </mxCell>
        <mxCell id="tpA9KlKDDthIMWe6Qa9L-49" value="" style="ellipse;whiteSpace=wrap;html=1;" parent="WIyWlLk6GJQsqaUBKTNV-1" vertex="1">
          <mxGeometry x="439.5" y="1080" width="170.5" height="80" as="geometry" />
        </mxCell>
        <mxCell id="tpA9KlKDDthIMWe6Qa9L-50" value="&lt;font style=&quot;font-size: 22px;&quot;&gt;Listar&amp;nbsp;&lt;/font&gt;&lt;span style=&quot;font-size: 22px;&quot;&gt;Lembrete&lt;/span&gt;" style="text;html=1;align=center;verticalAlign=middle;whiteSpace=wrap;rounded=0;arcSize=12;imageHeight=24;" parent="WIyWlLk6GJQsqaUBKTNV-1" vertex="1">
          <mxGeometry x="486" y="1107.5" width="75" height="25" as="geometry" />
        </mxCell>
        <mxCell id="tpA9KlKDDthIMWe6Qa9L-51" value="" style="endArrow=none;html=1;rounded=0;" parent="WIyWlLk6GJQsqaUBKTNV-1" target="tpA9KlKDDthIMWe6Qa9L-49" edge="1">
          <mxGeometry width="50" height="50" relative="1" as="geometry">
            <mxPoint x="180" y="1160" as="sourcePoint" />
            <mxPoint x="369.5" y="1220" as="targetPoint" />
          </mxGeometry>
        </mxCell>
        <mxCell id="tpA9KlKDDthIMWe6Qa9L-52" value="" style="ellipse;whiteSpace=wrap;html=1;" parent="WIyWlLk6GJQsqaUBKTNV-1" vertex="1">
          <mxGeometry x="373.5" y="1197" width="196.5" height="80" as="geometry" />
        </mxCell>
        <mxCell id="tpA9KlKDDthIMWe6Qa9L-53" value="&lt;font style=&quot;font-size: 22px;&quot;&gt;Remover&amp;nbsp;&lt;/font&gt;&lt;span style=&quot;font-size: 22px;&quot;&gt;Lembrete&lt;/span&gt;" style="text;html=1;align=center;verticalAlign=middle;whiteSpace=wrap;rounded=0;arcSize=12;imageHeight=24;" parent="WIyWlLk6GJQsqaUBKTNV-1" vertex="1">
          <mxGeometry x="430" y="1224.5" width="75" height="25" as="geometry" />
        </mxCell>
        <mxCell id="tpA9KlKDDthIMWe6Qa9L-54" value="" style="endArrow=none;html=1;rounded=0;" parent="WIyWlLk6GJQsqaUBKTNV-1" target="tpA9KlKDDthIMWe6Qa9L-52" edge="1">
          <mxGeometry width="50" height="50" relative="1" as="geometry">
            <mxPoint x="170" y="1210" as="sourcePoint" />
            <mxPoint x="303.5" y="1337" as="targetPoint" />
          </mxGeometry>
        </mxCell>
        <mxCell id="0" value="Gestor de itens" style="shape=umlActor;verticalLabelPosition=bottom;verticalAlign=top;html=1;outlineConnect=0;" parent="WIyWlLk6GJQsqaUBKTNV-1" vertex="1">
          <mxGeometry x="66.25" y="310" width="62.5" height="100" as="geometry" />
        </mxCell>
        <mxCell id="1" value="Gestor de itens" style="shape=umlActor;verticalLabelPosition=bottom;verticalAlign=top;html=1;outlineConnect=0;" parent="WIyWlLk6GJQsqaUBKTNV-1" vertex="1">
          <mxGeometry x="67.5" y="740" width="62.5" height="100" as="geometry" />
        </mxCell>
        <mxCell id="2" value="Gestor de itens" style="shape=umlActor;verticalLabelPosition=bottom;verticalAlign=top;html=1;outlineConnect=0;" parent="WIyWlLk6GJQsqaUBKTNV-1" vertex="1">
          <mxGeometry x="67.5" y="1130" width="62.5" height="100" as="geometry" />
        </mxCell>
      </root>
    </mxGraphModel>
  </diagram>
</mxfile>
